<svg width="202" height="24" viewBox="0 0 202 24" fill="none" xmlns="http://www.w3.org/2000/svg">
<path d="M0 16.48H0.352C0.586667 17.632 0.885333 18.6027 1.248 19.392C1.632 20.1813 2.048 20.832 2.496 21.344C2.944 21.856 3.41333 22.2507 3.904 22.528C4.39467 22.8053 4.88533 23.008 5.376 23.136C5.888 23.264 6.368 23.3387 6.816 23.36C7.28533 23.3813 7.72267 23.392 8.128 23.392C9.25867 23.392 10.1867 23.2213 10.912 22.88C11.6373 22.5387 12.2133 22.112 12.64 21.6C13.0667 21.0667 13.3653 20.5013 13.536 19.904C13.7067 19.2853 13.792 18.72 13.792 18.208C13.792 17.4613 13.6533 16.8213 13.376 16.288C13.0987 15.7547 12.7467 15.3067 12.32 14.944C11.8933 14.56 11.424 14.2507 10.912 14.016C10.4213 13.7813 9.952 13.6 9.504 13.472L5.824 12.352C4.096 11.8187 2.784 11.1147 1.888 10.24C1.01333 9.36533 0.576 8.192 0.576 6.72C0.576 5.76 0.746667 4.87467 1.088 4.064C1.42933 3.232 1.90933 2.51733 2.528 1.92C3.14667 1.32267 3.88267 0.853333 4.736 0.511999C5.61067 0.170666 6.56 0 7.584 0C8.33067 0 8.94933 0.0639998 9.44 0.191999C9.952 0.319999 10.3893 0.469332 10.752 0.639999C11.1147 0.789333 11.4347 0.928 11.712 1.056C12.0107 1.184 12.3093 1.248 12.608 1.248C12.8853 1.248 13.0667 1.216 13.152 1.152C13.2587 1.06667 13.3973 0.874667 13.568 0.576H14.016V6.368H13.632C13.504 5.6 13.28 4.864 12.96 4.16C12.6613 3.43467 12.2667 2.80533 11.776 2.272C11.2853 1.71733 10.688 1.28 9.984 0.959999C9.30133 0.618666 8.50133 0.448 7.584 0.448C7.072 0.448 6.50667 0.522666 5.888 0.671999C5.26933 0.8 4.69333 1.03467 4.16 1.376C3.62667 1.71733 3.17867 2.16533 2.816 2.72C2.47467 3.27467 2.304 3.97867 2.304 4.832C2.304 5.51467 2.44267 6.10133 2.72 6.592C2.99733 7.06133 3.34933 7.46667 3.776 7.808C4.224 8.128 4.71467 8.40533 5.248 8.64C5.80267 8.85333 6.35733 9.04533 6.912 9.216L10.784 10.432C11.1893 10.56 11.7013 10.7307 12.32 10.944C12.9387 11.1573 13.536 11.4773 14.112 11.904C14.7093 12.3307 15.2107 12.896 15.616 13.6C16.0427 14.304 16.256 15.2 16.256 16.288C16.256 17.2907 16.064 18.2507 15.68 19.168C15.3173 20.064 14.784 20.864 14.08 21.568C13.376 22.2507 12.5227 22.8053 11.52 23.232C10.5173 23.6373 9.38667 23.84 8.128 23.84C7.68 23.84 7.28533 23.8293 6.944 23.808C6.60267 23.808 6.28267 23.7867 5.984 23.744C5.68533 23.7013 5.38667 23.648 5.088 23.584C4.78933 23.5413 4.45867 23.4667 4.096 23.36C3.66933 23.232 3.21067 23.0827 2.72 22.912C2.22933 22.7413 1.80267 22.656 1.44 22.656C1.12 22.656 0.896 22.72 0.768 22.848C0.661333 22.976 0.565333 23.1467 0.48 23.36H0V16.48Z" />
<path d="M19.4877 9.632H21.9517V5.504C22.1224 5.568 22.2824 5.62133 22.4317 5.664C22.5811 5.70667 22.8371 5.728 23.1997 5.728C23.5197 5.728 23.7971 5.696 24.0317 5.632C24.2664 5.54667 24.4904 5.41867 24.7038 5.248V9.632H29.2478V10.08H24.7038V20.544C24.7038 21.1413 24.7571 21.632 24.8638 22.016C24.9918 22.3787 25.1518 22.6667 25.3438 22.88C25.5358 23.072 25.7384 23.2 25.9517 23.264C26.1864 23.328 26.4104 23.36 26.6238 23.36C27.3704 23.36 27.9678 23.0933 28.4158 22.56C28.8851 22.0053 29.1838 21.376 29.3118 20.672L29.7598 20.832C29.6957 21.1093 29.5997 21.4187 29.4718 21.76C29.3438 22.1013 29.1411 22.432 28.8638 22.752C28.6078 23.0507 28.2664 23.296 27.8398 23.488C27.4131 23.7013 26.8797 23.808 26.2397 23.808C24.6397 23.808 23.5197 23.4987 22.8797 22.88C22.2611 22.2613 21.9517 21.3867 21.9517 20.256V10.08H19.4877V9.632Z" />
<path d="M39.296 15.52H39.232C39.1893 15.7973 38.8373 16.0747 38.176 16.352L35.776 17.312C35.0933 17.5893 34.5707 17.984 34.208 18.496C33.8453 18.9867 33.664 19.6053 33.664 20.352C33.664 20.672 33.696 21.0027 33.76 21.344C33.824 21.6853 33.9413 21.9947 34.112 22.272C34.2827 22.528 34.5173 22.7413 34.816 22.912C35.136 23.0827 35.5413 23.168 36.032 23.168C36.736 23.168 37.3013 23.0187 37.728 22.72C38.176 22.4213 38.5067 22.048 38.72 21.6C38.9547 21.152 39.104 20.672 39.168 20.16C39.2533 19.6267 39.296 19.1467 39.296 18.72V15.52ZM44.896 23.008C44.6187 23.2213 44.288 23.4027 43.904 23.552C43.52 23.7227 43.0507 23.808 42.496 23.808C41.472 23.808 40.7253 23.5947 40.256 23.168C39.808 22.72 39.4987 22.1013 39.328 21.312H39.264C39.1787 21.504 39.0613 21.7493 38.912 22.048C38.7627 22.3253 38.528 22.6027 38.208 22.88C37.9093 23.136 37.504 23.3493 36.992 23.52C36.48 23.712 35.8293 23.808 35.04 23.808C34.144 23.808 33.4293 23.7013 32.896 23.488C32.3627 23.296 31.9467 23.0507 31.648 22.752C31.3493 22.4533 31.1467 22.1227 31.04 21.76C30.9547 21.376 30.912 21.024 30.912 20.704C30.912 19.9573 31.0613 19.36 31.36 18.912C31.6587 18.464 32.0427 18.112 32.512 17.856C33.0027 17.5787 33.536 17.3547 34.112 17.184C34.7093 17.0133 35.3067 16.832 35.904 16.64C36.608 16.4053 37.184 16.2027 37.632 16.032C38.1013 15.8613 38.464 15.6587 38.72 15.424C38.976 15.168 39.1467 14.8587 39.232 14.496C39.3387 14.112 39.392 13.6 39.392 12.96C39.392 12.448 39.36 11.9893 39.296 11.584C39.232 11.1787 39.1147 10.8373 38.944 10.56C38.7733 10.2613 38.528 10.0373 38.208 9.888C37.888 9.73867 37.4613 9.664 36.928 9.664C36.224 9.664 35.6373 9.792 35.168 10.048C34.72 10.2827 34.496 10.6773 34.496 11.232C34.496 11.5947 34.528 11.9573 34.592 12.32C34.656 12.6613 34.688 12.9173 34.688 13.088C34.688 13.3867 34.5813 13.6427 34.368 13.856C34.1547 14.048 33.8453 14.144 33.44 14.144C32.736 14.144 32.2987 14.016 32.128 13.76C31.9573 13.504 31.872 13.1733 31.872 12.768C31.872 12.2987 31.9787 11.8507 32.192 11.424C32.4053 10.9973 32.7147 10.624 33.12 10.304C33.5467 9.96267 34.0693 9.696 34.688 9.504C35.328 9.312 36.0533 9.216 36.864 9.216C37.8453 9.216 38.6667 9.344 39.328 9.6C39.9893 9.83467 40.5227 10.1653 40.928 10.592C41.3333 10.9973 41.6213 11.4667 41.792 12C41.9627 12.512 42.048 13.056 42.048 13.632V21.6C42.048 22.2187 42.144 22.6347 42.336 22.848C42.528 23.0613 42.8053 23.168 43.168 23.168C43.4027 23.168 43.648 23.1253 43.904 23.04C44.16 22.9547 44.4053 22.8267 44.64 22.656L44.896 23.008Z" />
<path d="M45.5503 9.632H48.0143V5.504C48.1849 5.568 48.3449 5.62133 48.4943 5.664C48.6436 5.70667 48.8996 5.728 49.2622 5.728C49.5822 5.728 49.8596 5.696 50.0942 5.632C50.3289 5.54667 50.5529 5.41867 50.7663 5.248V9.632H55.3102V10.08H50.7663V20.544C50.7663 21.1413 50.8196 21.632 50.9263 22.016C51.0543 22.3787 51.2143 22.6667 51.4062 22.88C51.5983 23.072 51.8009 23.2 52.0143 23.264C52.2489 23.328 52.4729 23.36 52.6862 23.36C53.4329 23.36 54.0302 23.0933 54.4782 22.56C54.9476 22.0053 55.2462 21.376 55.3742 20.672L55.8223 20.832C55.7582 21.1093 55.6623 21.4187 55.5343 21.76C55.4063 22.1013 55.2036 22.432 54.9263 22.752C54.6703 23.0507 54.3289 23.296 53.9023 23.488C53.4756 23.7013 52.9422 23.808 52.3022 23.808C50.7022 23.808 49.5822 23.4987 48.9422 22.88C48.3236 22.2613 48.0143 21.3867 48.0143 20.256V10.08H45.5503V9.632Z" />
<path d="M58.6385 2.176C58.6385 1.70667 58.7985 1.312 59.1185 0.991999C59.4598 0.650666 59.8652 0.48 60.3345 0.48C60.8038 0.48 61.1985 0.650666 61.5185 0.991999C61.8598 1.312 62.0305 1.70667 62.0305 2.176C62.0305 2.64533 61.8598 3.05067 61.5185 3.392C61.1985 3.712 60.8038 3.872 60.3345 3.872C59.8652 3.872 59.4598 3.712 59.1185 3.392C58.7985 3.05067 58.6385 2.64533 58.6385 2.176ZM56.5585 22.912H59.0225V10.08H56.5585V9.632H61.7745V22.912H64.2385V23.36H56.5585V22.912Z" />
<path d="M79.4033 19.84C79.3393 20.0747 79.2112 20.416 79.0192 20.864C78.8486 21.2907 78.5606 21.728 78.1553 22.176C77.7713 22.6027 77.2379 22.9867 76.5553 23.328C75.8939 23.648 75.0299 23.808 73.9632 23.808C73.1526 23.808 72.3099 23.68 71.4352 23.424C70.5606 23.168 69.7606 22.7627 69.0352 22.208C68.3099 21.632 67.7126 20.8853 67.2432 19.968C66.7952 19.0507 66.5713 17.92 66.5713 16.576C66.5713 15.5307 66.7632 14.56 67.1472 13.664C67.5526 12.768 68.0859 11.9893 68.7473 11.328C69.4299 10.6667 70.2192 10.1547 71.1152 9.792C72.0326 9.408 73.0033 9.216 74.0273 9.216C74.6033 9.216 75.1899 9.29067 75.7872 9.44C76.4059 9.568 76.9606 9.78133 77.4512 10.08C77.9632 10.3573 78.3792 10.7307 78.6992 11.2C79.0406 11.648 79.2113 12.2027 79.2113 12.864C79.2113 13.312 79.0619 13.6853 78.7633 13.984C78.4859 14.2613 78.0806 14.4 77.5472 14.4C77.1846 14.4 76.8326 14.3253 76.4912 14.176C76.1712 14.0053 76.0113 13.728 76.0113 13.344C76.0113 13.0453 76.0859 12.6827 76.2353 12.256C76.3846 11.8293 76.4593 11.4773 76.4593 11.2C76.4593 10.7093 76.2139 10.336 75.7233 10.08C75.2326 9.80267 74.6673 9.664 74.0273 9.664C73.5579 9.664 73.0673 9.728 72.5553 9.856C72.0646 9.96267 71.6059 10.2507 71.1793 10.72C70.7739 11.1893 70.4326 11.8933 70.1553 12.832C69.8993 13.7707 69.7712 15.0507 69.7712 16.672C69.7712 17.5893 69.8246 18.4533 69.9313 19.264C70.0593 20.0747 70.2726 20.7893 70.5713 21.408C70.8913 22.0053 71.3179 22.4853 71.8512 22.848C72.4059 23.1893 73.1206 23.36 73.9952 23.36C74.9339 23.36 75.7019 23.2213 76.2992 22.944C76.9179 22.6667 77.3979 22.336 77.7393 21.952C78.1019 21.5467 78.3686 21.1413 78.5393 20.736C78.7099 20.3307 78.8379 20 78.9232 19.744L79.4033 19.84Z" />
<path d="M86.2487 0.576H95.8808V1.024H92.5527L99.1448 19.584H99.2087L103.465 7.776L101.033 1.024H98.3447V0.576H107.945V1.024H104.457L111.049 19.584H111.113L117.833 1.024H114.409V0.576H121.257V1.024H118.377L110.089 23.84H109.289L103.785 8.48H103.721L98.1527 23.84H97.2887L89.1288 1.024H86.2487V0.576Z" />
<path d="M129.02 14.976C129.063 14.6773 129.084 14.4 129.084 14.144C129.084 13.888 129.084 13.6213 129.084 13.344C129.084 12.6187 129.01 12.0213 128.86 11.552C128.732 11.0827 128.54 10.7093 128.284 10.432C128.05 10.1547 127.751 9.96267 127.388 9.856C127.047 9.728 126.674 9.664 126.268 9.664C125.543 9.664 124.946 9.81333 124.476 10.112C124.007 10.3893 123.634 10.7733 123.356 11.264C123.079 11.7547 122.866 12.32 122.716 12.96C122.588 13.6 122.503 14.272 122.46 14.976H129.02ZM122.428 15.424C122.428 15.6373 122.418 15.8613 122.396 16.096C122.396 16.3093 122.396 16.5867 122.396 16.928C122.396 17.632 122.439 18.368 122.524 19.136C122.61 19.904 122.791 20.5973 123.068 21.216C123.367 21.8347 123.794 22.3467 124.348 22.752C124.924 23.1573 125.682 23.36 126.62 23.36C127.559 23.36 128.327 23.2213 128.924 22.944C129.543 22.6667 130.023 22.336 130.364 21.952C130.727 21.5467 130.994 21.1413 131.164 20.736C131.335 20.3307 131.463 20 131.548 19.744L132.028 19.84C131.964 20.0747 131.836 20.416 131.644 20.864C131.474 21.2907 131.186 21.728 130.78 22.176C130.396 22.6027 129.863 22.9867 129.18 23.328C128.519 23.648 127.655 23.808 126.588 23.808C125.522 23.808 124.53 23.6373 123.612 23.296C122.716 22.9547 121.938 22.464 121.276 21.824C120.615 21.184 120.103 20.4267 119.74 19.552C119.378 18.656 119.196 17.664 119.196 16.576C119.196 15.6373 119.378 14.7307 119.74 13.856C120.124 12.96 120.636 12.1707 121.276 11.488C121.938 10.8053 122.706 10.2613 123.58 9.856C124.455 9.42933 125.394 9.216 126.396 9.216C126.994 9.216 127.634 9.32267 128.316 9.536C128.999 9.74933 129.628 10.1013 130.204 10.592C130.802 11.0613 131.292 11.6907 131.676 12.48C132.082 13.2693 132.284 14.2507 132.284 15.424H122.428Z" />
<path d="M147.868 16.032C147.868 15.0507 147.815 14.176 147.708 13.408C147.602 12.6187 147.41 11.9467 147.132 11.392C146.876 10.8373 146.503 10.4107 146.012 10.112C145.543 9.81333 144.935 9.664 144.188 9.664C143.399 9.664 142.748 9.80267 142.236 10.08C141.724 10.3573 141.308 10.7093 140.988 11.136C140.754 11.4347 140.562 11.7547 140.412 12.096C140.284 12.4373 140.178 12.8427 140.092 13.312C140.007 13.7813 139.943 14.3253 139.9 14.944C139.879 15.5413 139.868 16.256 139.868 17.088C139.868 17.792 139.922 18.5173 140.028 19.264C140.135 20.0107 140.338 20.6933 140.636 21.312C140.935 21.9093 141.351 22.4 141.884 22.784C142.439 23.168 143.164 23.36 144.06 23.36C144.935 23.36 145.628 23.1893 146.14 22.848C146.652 22.5067 147.036 22.016 147.292 21.376C147.548 20.736 147.708 19.968 147.772 19.072C147.836 18.1547 147.868 17.1413 147.868 16.032ZM134.652 22.912H137.116V0.736H134.652V0.288H139.868V12.192H139.932C140.231 11.36 140.743 10.656 141.468 10.08C142.194 9.504 143.143 9.216 144.316 9.216C145.234 9.216 146.098 9.41867 146.908 9.824C147.719 10.208 148.434 10.7307 149.052 11.392C149.671 12.032 150.162 12.7893 150.524 13.664C150.887 14.5387 151.068 15.456 151.068 16.416C151.068 17.3973 150.876 18.336 150.492 19.232C150.13 20.1067 149.628 20.8853 148.988 21.568C148.348 22.2507 147.602 22.7947 146.748 23.2C145.916 23.6053 145.031 23.808 144.092 23.808C143.367 23.808 142.748 23.68 142.236 23.424C141.746 23.1893 141.33 22.9013 140.988 22.56C140.668 22.2187 140.423 21.8667 140.252 21.504C140.082 21.1413 139.954 20.832 139.868 20.576H139.804V23.36H134.652V22.912Z" />
<path d="M154.517 18.88H154.869C155.018 19.392 155.21 19.9147 155.445 20.448C155.68 20.96 155.989 21.44 156.373 21.888C156.778 22.3147 157.269 22.6667 157.845 22.944C158.421 23.2213 159.114 23.36 159.925 23.36C160.608 23.36 161.216 23.1573 161.749 22.752C162.282 22.3253 162.549 21.6427 162.549 20.704C162.549 19.8933 162.336 19.328 161.909 19.008C161.504 18.6667 161.024 18.4 160.469 18.208L157.973 17.344C157.653 17.2373 157.301 17.1093 156.917 16.96C156.554 16.7893 156.213 16.5653 155.893 16.288C155.573 15.9893 155.306 15.616 155.093 15.168C154.901 14.72 154.805 14.144 154.805 13.44C154.805 12.8427 154.922 12.288 155.157 11.776C155.392 11.264 155.712 10.816 156.117 10.432C156.522 10.048 157.002 9.74933 157.557 9.536C158.133 9.32267 158.752 9.216 159.413 9.216C159.882 9.216 160.256 9.25867 160.533 9.344C160.832 9.408 161.088 9.48267 161.301 9.568C161.514 9.632 161.706 9.70667 161.877 9.792C162.048 9.856 162.25 9.888 162.485 9.888C162.72 9.888 162.89 9.80267 162.997 9.632H163.349V13.28H162.997C162.848 12.8107 162.677 12.3627 162.485 11.936C162.293 11.488 162.058 11.0933 161.781 10.752C161.525 10.4107 161.194 10.144 160.789 9.952C160.405 9.76 159.946 9.664 159.413 9.664C158.389 9.664 157.589 9.89867 157.013 10.368C156.458 10.816 156.181 11.424 156.181 12.192C156.181 12.8747 156.416 13.3973 156.885 13.76C157.376 14.1013 158.09 14.4213 159.029 14.72L161.365 15.488C162.368 15.8293 163.189 16.2987 163.829 16.896C164.469 17.4933 164.789 18.2827 164.789 19.264C164.789 19.84 164.672 20.4053 164.437 20.96C164.224 21.5147 163.893 22.0053 163.445 22.432C163.018 22.8373 162.485 23.168 161.845 23.424C161.226 23.68 160.512 23.808 159.701 23.808C159.232 23.808 158.794 23.7547 158.389 23.648C158.005 23.5627 157.642 23.4667 157.301 23.36C156.981 23.2533 156.682 23.1573 156.405 23.072C156.128 22.9653 155.872 22.912 155.637 22.912C155.402 22.912 155.232 22.9653 155.125 23.072C155.018 23.1573 154.933 23.2533 154.869 23.36H154.517V18.88Z" />
<path d="M169.326 2.176C169.326 1.70667 169.486 1.312 169.806 0.991999C170.147 0.650666 170.553 0.48 171.022 0.48C171.491 0.48 171.886 0.650666 172.206 0.991999C172.547 1.312 172.718 1.70667 172.718 2.176C172.718 2.64533 172.547 3.05067 172.206 3.392C171.886 3.712 171.491 3.872 171.022 3.872C170.553 3.872 170.147 3.712 169.806 3.392C169.486 3.05067 169.326 2.64533 169.326 2.176ZM167.246 22.912H169.71V10.08H167.246V9.632H172.462V22.912H174.926V23.36H167.246V22.912Z" />
<path d="M176.363 9.632H178.827V5.504C178.997 5.568 179.157 5.62133 179.307 5.664C179.456 5.70667 179.712 5.728 180.075 5.728C180.395 5.728 180.672 5.696 180.907 5.632C181.141 5.54667 181.365 5.41867 181.579 5.248V9.632H186.123V10.08H181.579V20.544C181.579 21.1413 181.632 21.632 181.739 22.016C181.867 22.3787 182.027 22.6667 182.219 22.88C182.411 23.072 182.613 23.2 182.827 23.264C183.061 23.328 183.285 23.36 183.499 23.36C184.245 23.36 184.843 23.0933 185.291 22.56C185.76 22.0053 186.059 21.376 186.187 20.672L186.635 20.832C186.571 21.1093 186.475 21.4187 186.347 21.76C186.219 22.1013 186.016 22.432 185.739 22.752C185.483 23.0507 185.141 23.296 184.715 23.488C184.288 23.7013 183.755 23.808 183.115 23.808C181.515 23.808 180.395 23.4987 179.755 22.88C179.136 22.2613 178.827 21.3867 178.827 20.256V10.08H176.363V9.632Z" />
<path d="M197.739 14.976C197.782 14.6773 197.803 14.4 197.803 14.144C197.803 13.888 197.803 13.6213 197.803 13.344C197.803 12.6187 197.728 12.0213 197.579 11.552C197.451 11.0827 197.259 10.7093 197.003 10.432C196.768 10.1547 196.47 9.96267 196.107 9.856C195.766 9.728 195.392 9.664 194.987 9.664C194.262 9.664 193.664 9.81333 193.195 10.112C192.726 10.3893 192.352 10.7733 192.075 11.264C191.798 11.7547 191.584 12.32 191.435 12.96C191.307 13.6 191.222 14.272 191.179 14.976H197.739ZM191.147 15.424C191.147 15.6373 191.136 15.8613 191.115 16.096C191.115 16.3093 191.115 16.5867 191.115 16.928C191.115 17.632 191.158 18.368 191.243 19.136C191.328 19.904 191.51 20.5973 191.787 21.216C192.086 21.8347 192.512 22.3467 193.067 22.752C193.643 23.1573 194.4 23.36 195.339 23.36C196.278 23.36 197.046 23.2213 197.643 22.944C198.262 22.6667 198.742 22.336 199.083 21.952C199.446 21.5467 199.712 21.1413 199.883 20.736C200.054 20.3307 200.182 20 200.267 19.744L200.747 19.84C200.683 20.0747 200.555 20.416 200.363 20.864C200.192 21.2907 199.904 21.728 199.499 22.176C199.115 22.6027 198.582 22.9867 197.899 23.328C197.238 23.648 196.374 23.808 195.307 23.808C194.24 23.808 193.248 23.6373 192.331 23.296C191.435 22.9547 190.656 22.464 189.995 21.824C189.334 21.184 188.822 20.4267 188.459 19.552C188.096 18.656 187.915 17.664 187.915 16.576C187.915 15.6373 188.096 14.7307 188.459 13.856C188.843 12.96 189.355 12.1707 189.995 11.488C190.656 10.8053 191.424 10.2613 192.299 9.856C193.174 9.42933 194.112 9.216 195.115 9.216C195.712 9.216 196.352 9.32267 197.035 9.536C197.718 9.74933 198.347 10.1013 198.923 10.592C199.52 11.0613 200.011 11.6907 200.395 12.48C200.8 13.2693 201.003 14.2507 201.003 15.424H191.147Z" />
</svg>
